<svg width="172" height="42" viewBox="0 0 172 42" fill="none" xmlns="http://www.w3.org/2000/svg">
<path opacity="0.5" d="M40.0652 2.25671L30.2601 36.9917C30.2102 37.1494 30.0108 37.1967 29.8945 37.0863L23.3301 30.8583L28.2492 13.4514C28.2991 13.2937 28.1495 13.1518 27.9833 13.1991L9.63617 17.8662L3.10498 11.6697C2.98865 11.5593 3.03851 11.3701 3.20469 11.3228L39.7993 2.00444C39.9655 1.97291 40.115 2.11481 40.0652 2.25671Z" fill="#00B37E"/>
<path opacity="0.5" d="M23.3297 30.858L20.8037 39.8452C20.7538 40.0029 20.5544 40.0502 20.4381 39.9398L0.0634003 20.6251C-0.0529313 20.5147 -0.00307518 20.3255 0.163113 20.2782L9.63583 17.8658L23.3297 30.858Z" fill="#00B37E"/>
<path d="M28.2484 13.4511L23.3292 30.858L9.63533 17.8659L27.9825 13.1988C28.1487 13.1515 28.2982 13.2934 28.2484 13.4511Z" fill="#00B37E"/>
<path d="M68.2338 23.466H71.9691C71.8942 24.6903 71.5569 25.7771 70.9572 26.7266C70.3659 27.676 69.5372 28.4173 68.4711 28.9503C67.4134 29.4833 66.1391 29.7499 64.6483 29.7499C63.4823 29.7499 62.4371 29.55 61.5126 29.1502C60.5882 28.7421 59.7969 28.1591 59.139 27.4012C58.4894 26.6433 57.9938 25.7272 57.6523 24.6528C57.3109 23.5784 57.1401 22.3749 57.1401 21.0424V19.7806C57.1401 18.448 57.315 17.2445 57.6648 16.1701C58.023 15.0874 58.531 14.1671 59.189 13.4092C59.8552 12.6513 60.6506 12.0683 61.5751 11.6602C62.4996 11.2521 63.5323 11.0481 64.6733 11.0481C66.1891 11.0481 67.4675 11.3229 68.5086 11.8726C69.558 12.4223 70.37 13.1802 70.9447 14.1463C71.5277 15.1124 71.8775 16.2118 71.9941 17.4444H68.2463C68.2046 16.7115 68.0589 16.091 67.809 15.583C67.5592 15.0666 67.1802 14.6793 66.6722 14.4211C66.1725 14.1546 65.5062 14.0214 64.6733 14.0214C64.0487 14.0214 63.5032 14.138 63.0368 14.3712C62.5704 14.6044 62.1789 14.9583 61.8624 15.4331C61.5459 15.9078 61.3086 16.5075 61.1503 17.232C61.0004 17.9483 60.9255 18.7895 60.9255 19.7556V21.0424C60.9255 21.9835 60.9963 22.8122 61.1378 23.5284C61.2794 24.2364 61.496 24.836 61.7875 25.3274C62.0873 25.8104 62.4704 26.1769 62.9368 26.4268C63.4115 26.6683 63.982 26.7891 64.6483 26.7891C65.4312 26.7891 66.0767 26.6641 66.5847 26.4143C67.0928 26.1644 67.48 25.7938 67.7466 25.3024C68.0214 24.811 68.1838 24.1989 68.2338 23.466ZM86.1235 26.5767V29.5H76.9663V26.5767H86.1235ZM78.1781 11.3104V29.5H74.4302V11.3104H78.1781ZM96.3551 11.3104H99.5283L104.201 24.6653L108.873 11.3104H112.046L105.475 29.5H102.926L96.3551 11.3104ZM94.6436 11.3104H97.8043L98.379 24.328V29.5H94.6436V11.3104ZM110.597 11.3104H113.77V29.5H110.022V24.328L110.597 11.3104ZM116.256 22.8788V22.6164C116.256 21.6253 116.398 20.7134 116.681 19.8805C116.964 19.0393 117.376 18.3106 117.918 17.6943C118.459 17.078 119.125 16.5991 119.917 16.2576C120.708 15.9078 121.616 15.7329 122.64 15.7329C123.664 15.7329 124.576 15.9078 125.376 16.2576C126.176 16.5991 126.846 17.078 127.387 17.6943C127.937 18.3106 128.353 19.0393 128.637 19.8805C128.92 20.7134 129.061 21.6253 129.061 22.6164V22.8788C129.061 23.8616 128.92 24.7735 128.637 25.6147C128.353 26.4476 127.937 27.1763 127.387 27.801C126.846 28.4173 126.18 28.8962 125.388 29.2377C124.597 29.5791 123.689 29.7499 122.665 29.7499C121.641 29.7499 120.729 29.5791 119.929 29.2377C119.138 28.8962 118.467 28.4173 117.918 27.801C117.376 27.1763 116.964 26.4476 116.681 25.6147C116.398 24.7735 116.256 23.8616 116.256 22.8788ZM119.854 22.6164V22.8788C119.854 23.4451 119.904 23.974 120.004 24.4654C120.104 24.9568 120.262 25.3899 120.479 25.7646C120.704 26.1311 120.995 26.4184 121.353 26.6266C121.711 26.8349 122.149 26.939 122.665 26.939C123.165 26.939 123.594 26.8349 123.952 26.6266C124.31 26.4184 124.597 26.1311 124.814 25.7646C125.03 25.3899 125.189 24.9568 125.289 24.4654C125.397 23.974 125.451 23.4451 125.451 22.8788V22.6164C125.451 22.0668 125.397 21.5504 125.289 21.0673C125.189 20.576 125.026 20.1429 124.801 19.7681C124.585 19.385 124.297 19.0851 123.939 18.8686C123.581 18.6521 123.148 18.5438 122.64 18.5438C122.132 18.5438 121.699 18.6521 121.341 18.8686C120.991 19.0851 120.704 19.385 120.479 19.7681C120.262 20.1429 120.104 20.576 120.004 21.0673C119.904 21.5504 119.854 22.0668 119.854 22.6164ZM134.796 18.8686V29.5H131.198V15.9828H134.571L134.796 18.8686ZM134.271 22.2666H133.296C133.296 21.2672 133.426 20.3677 133.684 19.5682C133.942 18.7603 134.304 18.0732 134.771 17.5069C135.237 16.9322 135.791 16.495 136.432 16.1951C137.082 15.887 137.806 15.7329 138.606 15.7329C139.239 15.7329 139.818 15.8245 140.342 16.0077C140.867 16.191 141.317 16.4825 141.692 16.8822C142.075 17.282 142.366 17.8109 142.566 18.4688C142.774 19.1268 142.878 19.9305 142.878 20.8799V29.5H139.256V20.8675C139.256 20.2678 139.172 19.8014 139.006 19.4683C138.839 19.1351 138.593 18.9019 138.269 18.7687C137.952 18.6271 137.561 18.5563 137.094 18.5563C136.611 18.5563 136.191 18.6521 135.833 18.8436C135.483 19.0352 135.191 19.3017 134.958 19.6432C134.733 19.9763 134.562 20.3677 134.446 20.8175C134.329 21.2672 134.271 21.7503 134.271 22.2666ZM151.836 29.7499C150.786 29.7499 149.845 29.5833 149.012 29.2501C148.18 28.9087 147.472 28.4381 146.889 27.8385C146.314 27.2388 145.873 26.5434 145.564 25.7521C145.256 24.9526 145.102 24.1031 145.102 23.2036V22.7039C145.102 21.6795 145.248 20.7425 145.539 19.893C145.831 19.0435 146.247 18.3064 146.789 17.6818C147.338 17.0571 148.005 16.5782 148.788 16.2451C149.57 15.9036 150.453 15.7329 151.436 15.7329C152.394 15.7329 153.243 15.8911 153.985 16.2076C154.726 16.5241 155.346 16.9739 155.846 17.5569C156.354 18.1398 156.737 18.8394 156.995 19.6556C157.254 20.4635 157.383 21.363 157.383 22.3541V23.8532H146.639V21.4546H153.847V21.1798C153.847 20.6801 153.756 20.2345 153.572 19.843C153.397 19.4433 153.131 19.1268 152.773 18.8936C152.415 18.6604 151.957 18.5438 151.399 18.5438C150.924 18.5438 150.516 18.6479 150.174 18.8561C149.833 19.0643 149.554 19.3558 149.337 19.7306C149.129 20.1054 148.971 20.5468 148.863 21.0548C148.763 21.5546 148.713 22.1042 148.713 22.7039V23.2036C148.713 23.745 148.788 24.2447 148.937 24.7028C149.096 25.1608 149.316 25.5564 149.6 25.8896C149.891 26.2227 150.241 26.4809 150.649 26.6641C151.065 26.8474 151.536 26.939 152.061 26.939C152.71 26.939 153.314 26.814 153.872 26.5642C154.438 26.306 154.926 25.9187 155.334 25.4024L157.083 27.3013C156.8 27.7094 156.412 28.1008 155.921 28.4756C155.438 28.8504 154.855 29.1585 154.172 29.4001C153.489 29.6333 152.71 29.7499 151.836 29.7499ZM163.267 27.9759L166.852 15.9828H170.712L165.278 31.5363C165.162 31.8778 165.003 32.2443 164.803 32.6357C164.612 33.0271 164.349 33.3978 164.016 33.7476C163.692 34.1057 163.279 34.3972 162.78 34.6221C162.288 34.8469 161.684 34.9594 160.968 34.9594C160.627 34.9594 160.348 34.9385 160.131 34.8969C159.915 34.8553 159.656 34.797 159.357 34.722V32.086C159.448 32.086 159.544 32.086 159.644 32.086C159.744 32.0943 159.84 32.0985 159.931 32.0985C160.406 32.0985 160.793 32.0444 161.093 31.9361C161.393 31.8278 161.634 31.6613 161.818 31.4364C162.001 31.2198 162.147 30.9367 162.255 30.5869L163.267 27.9759ZM161.768 15.9828L164.703 25.7771L165.216 29.5874L162.767 29.8498L157.907 15.9828H161.768Z" fill="#E1E1E6"/>
</svg>
